<?xml version="1.0" encoding="utf-8"?>
<!-- Generator: Adobe Illustrator 19.1.0, SVG Export Plug-In . SVG Version: 6.00 Build 0)  -->
<svg version="1.1" id="Layer_1" xmlns="http://www.w3.org/2000/svg" xmlns:xlink="http://www.w3.org/1999/xlink" x="0px" y="0px"
	 viewBox="-410 170.4 202.9 161.6" style="enable-background:new -410 170.4 202.9 161.6;" xml:space="preserve">
<style type="text/css">
	.st0{fill:none;stroke:#E2E2E2;stroke-width:2;stroke-miterlimit:10;}
	.st1{fill:none;stroke:#E2E2E2;stroke-width:2;stroke-linecap:round;stroke-miterlimit:10;}
	.st2{fill:#00CEA6;}
	.st3{fill:#024B6D;}
</style>
<line class="st0" x1="-361" y1="250.1" x2="-256" y2="250.1"/>
<path class="st1" d="M-378.5,216.7c-3.2,8.1-4.9,17-4.9,26.2c0,32,20.9,59.1,49.9,68.4"/>
<path class="st1" d="M-239,216.7c3.2,8.1,4.9,17,4.9,26.2c0,32-20.9,59.1-49.9,68.4"/>
<polygon class="st2" points="-372.8,207.1 -373.5,199 -378.5,205.4 -377.8,213.4 "/>
<path class="st2" d="M-381.5,215.6l-3.4-4.4c-0.9,2.2-1.8,4.4-2.6,6.7l3.8,4.9L-381.5,215.6z"/>
<path class="st2" d="M-377.8,224.5l4.9-1.7c0.7-2.5,1.5-4.9,2.5-7.3l-5.2,1.8L-377.8,224.5z"/>
<path class="st2" d="M-385.7,230.7l-4.2-3.9c-0.5,2.4-0.9,4.8-1.2,7.2l4.4,4.1L-385.7,230.7z"/>
<path class="st2" d="M-374.2,228.5l-5.4,2.9l-1,7.5l5.5-3C-374.9,233.4-374.6,231-374.2,228.5z"/>
<path class="st2" d="M-386.4,245l-5.2-3.7c0,0.9-0.1,1.9-0.1,2.8c0,1.6,0.1,3.1,0.1,4.7l5.2,3.7V245z"/>
<path class="st2" d="M-380.3,244.9l0.1,7.5l5.5-4c-0.3-2.4-0.4-4.8-0.5-7.2L-380.3,244.9z"/>
<path class="st2" d="M-384.7,259.4l-6-2.7c0.4,2.5,0.9,4.9,1.5,7.4l6.1,2.7L-384.7,259.4z"/>
<path class="st2" d="M-372.2,260.2c-0.7-2.3-1.3-4.7-1.8-7.1l-4.7,5.1l1.5,7.4L-372.2,260.2z"/>
<path class="st2" d="M-380,273.1l-7-1.5c0.8,2.3,1.7,4.6,2.7,6.8l7.3,1.5L-380,273.1z"/>
<path class="st2" d="M-367.6,271.2c-1.2-2.2-2.2-4.5-3.1-6.8l-3.6,6.2l3.1,6.9L-367.6,271.2z"/>
<path class="st2" d="M-372.4,286l-8-0.1c1.2,2.1,2.6,4.2,4,6.2l8.3,0.1L-372.4,286z"/>
<path class="st2" d="M-360.6,281.9c-1.6-1.9-3-4-4.3-6.1l-2.4,6.7l4.3,6.2L-360.6,281.9z"/>
<path class="st2" d="M-370.5,299.5c1.6,1.8,3.3,3.5,5.1,5.2l8.8-1.8l-5.5-5.1L-370.5,299.5z"/>
<path class="st2" d="M-351.6,291.2c-1.9-1.6-3.8-3.4-5.5-5.2l-0.9,7.3l5.5,5.1L-351.6,291.2z"/>
<path class="st2" d="M-356.3,312.1c1.4,1,2.9,2,4.4,2.9l1.6,0.8l8-4.3l-6.8-3.3L-356.3,312.1z"/>
<path class="st2" d="M-347.8,294.2l1.4,8.5l6.8,3.3l-1.3-7.4C-343.2,297.3-345.6,295.8-347.8,294.2z"/>
<polygon class="st2" points="-239,205.4 -244,199 -244.7,207.1 -239.7,213.4 "/>
<path class="st2" d="M-230.1,217.8c-0.8-2.3-1.6-4.5-2.6-6.7l-3.4,4.4l2.2,7.2L-230.1,217.8z"/>
<path class="st2" d="M-239.7,224.5l-2.2-7.2l-5.2-1.8c1,2.4,1.8,4.8,2.5,7.3L-239.7,224.5z"/>
<path class="st2" d="M-230.9,238.1l4.4-4.1c-0.3-2.4-0.7-4.9-1.2-7.2l-4.2,3.9L-230.9,238.1z"/>
<path class="st2" d="M-242.4,235.9l5.5,3l-1-7.5l-5.4-2.9C-242.9,231-242.6,233.4-242.4,235.9z"/>
<path class="st2" d="M-225.9,241.3l-5.2,3.7l-0.1,7.5l5.2-3.7c0.1-1.5,0.1-3.1,0.1-4.7C-225.8,243.2-225.9,242.2-225.9,241.3z"/>
<path class="st2" d="M-237.2,244.9l-5.1-3.7c0,2.4-0.2,4.8-0.5,7.2l5.5,4L-237.2,244.9z"/>
<path class="st2" d="M-234.3,266.8l6.1-2.7c0.6-2.4,1.1-4.9,1.5-7.4l-6,2.7L-234.3,266.8z"/>
<path class="st2" d="M-245.2,260.2l5,5.4l1.5-7.4l-4.7-5.1C-243.9,255.5-244.5,257.9-245.2,260.2z"/>
<path class="st2" d="M-240.6,280l7.3-1.5c1-2.2,1.9-4.5,2.7-6.8l-7,1.5L-240.6,280z"/>
<path class="st2" d="M-243.1,270.7l-3.6-6.2c-0.9,2.3-1.9,4.6-3.1,6.8l3.7,6.3L-243.1,270.7z"/>
<path class="st2" d="M-249.4,292.2l8.3-0.1c1.4-2,2.7-4,4-6.2l-8,0.1L-249.4,292.2z"/>
<path class="st2" d="M-250.1,282.6l-2.4-6.7c-1.3,2.1-2.8,4.1-4.3,6.1l2.4,6.8L-250.1,282.6z"/>
<path class="st2" d="M-260.9,302.9l8.8,1.8c1.8-1.7,3.5-3.4,5.1-5.2l-8.3-1.7L-260.9,302.9z"/>
<path class="st2" d="M-265,298.4l5.5-5.1l-0.9-7.3c-1.7,1.8-3.6,3.6-5.5,5.2L-265,298.4z"/>
<path class="st2" d="M-275.2,311.5l8,4.3l1.6-0.8c1.5-0.9,3-1.9,4.4-2.9l-7.3-3.9L-275.2,311.5z"/>
<path class="st2" d="M-269.7,294.2c-2.2,1.6-4.5,3.1-6.9,4.4l-1.3,7.4l6.8-3.3L-269.7,294.2z"/>
<path class="st3" d="M-294.5,224.5h-2.4v2.6h-1.7v2.2h1.6v4.6c0,2.5,0.8,3.8,3.7,3.8h1.1v-2.5h-0.8c-1.2,0-1.4-0.5-1.4-1.5v-4.3h2.6
	v-2.2h-2.7V224.5z"/>
<rect x="-289.7" y="223.1" class="st3" width="2.6" height="2.4"/>
<rect x="-289.7" y="227.1" class="st3" width="2.6" height="10.5"/>
<path class="st3" d="M-276,234.6c0-1.5-0.6-2.5-3.2-3.2c-2.8-0.8-3.2-0.9-3.2-1.5c0-0.5,0.6-1,1.6-1c1.4,0,1.9,0.8,2.3,1.6l2.1-0.7
	c-0.5-1.8-1.8-3.1-4.4-3.1c-2.6,0-4,1.6-4,3.2c0,1.6,1.2,2.4,3.5,3.1c2.1,0.6,2.8,0.7,2.8,1.5c0,0.7-0.8,1.2-2.1,1.2
	c-1.4,0-2.2-0.8-2.4-2.2l-2.3,0.6c0.3,1.8,1.6,3.8,4.8,3.8C-277.3,237.9-276,236.1-276,234.6z"/>
<path class="st3" d="M-269.7,237.9c2.2,0,3.5-1.1,4.3-2.3l-1.8-1.6c-0.5,0.7-1.2,1.6-2.6,1.6c-1.4,0-2.2-0.9-2.3-2.5h7.1v-0.7
	c0-3.4-2.1-5.6-4.8-5.6c-2.7,0-4.9,2.1-4.9,5.6C-274.7,235.8-272.6,237.9-269.7,237.9z M-269.9,229.1c1.4,0,2.2,0.8,2.3,2.1h-4.6
	C-272.1,230-271.2,229.1-269.9,229.1z"/>
<polygon class="st3" points="-341.9,235.1 -348.1,235.1 -348.1,231.7 -342.5,231.7 -342.5,229.3 -348.1,229.3 -348.1,226.2 
	-341.9,226.2 -341.9,223.7 -350.7,223.7 -350.7,237.6 -341.9,237.6 "/>
<polygon class="st3" points="-330.2,227.1 -332.9,227.1 -335.3,230.6 -335.3,230.6 -337.7,227.1 -340.3,227.1 -336.9,232.2 
	-340.6,237.6 -337.8,237.6 -335.3,233.9 -335.3,233.9 -332.8,237.6 -330,237.6 -333.7,232.2 "/>
<path class="st3" d="M-323.2,226.8c-2.1,0-2.8,1.3-2.8,1.3l0,0v-1h-2.5v15h2.5v-5.5l0,0c0,0,0.7,1.3,2.8,1.3c2.4,0,4.6-2,4.6-5.6
	C-318.5,228.8-320.9,226.8-323.2,226.8z M-323.7,235.6c-1.4,0-2.5-1.1-2.5-3.2c0-2.2,1.1-3.2,2.5-3.2c1.4,0,2.5,1.1,2.5,3.2
	C-321.1,234.5-322.2,235.6-323.7,235.6z"/>
<path class="st3" d="M-312.4,226.8c-2.7,0-4.9,2.1-4.9,5.6c0,3.4,2.1,5.6,5,5.6c2.2,0,3.5-1.1,4.3-2.3l-1.8-1.6
	c-0.5,0.7-1.2,1.6-2.6,1.6s-2.2-0.9-2.3-2.5h7.1v-0.8C-307.6,228.9-309.7,226.8-312.4,226.8z M-314.7,231.2c0.1-1.2,0.9-2.1,2.2-2.1
	c1.4,0,2.2,0.8,2.3,2.1H-314.7z"/>
<path class="st3" d="M-303.4,228.2L-303.4,228.2v-1.1h-2.4v10.5h2.6v-5.8c0-1.7,0.7-2.4,1.8-2.4c0.3,0,0.5,0.1,0.8,0.2l0.4-2.5
	c-0.3-0.1-0.6-0.2-1-0.2C-302.1,226.9-303,227.4-303.4,228.2z"/>
<polygon class="st2" points="-324.7,213.6 -336.8,201.4 -324.7,189.2 -319.8,194.1 -319.8,194.1 -317.3,196.5 -317.3,196.5 
	-312.5,201.4 -312.5,201.4 -312.5,201.4 -317.3,206.3 -314.9,208.7 -310,203.9 -305.1,208.7 -305.1,208.7 -302.7,211.2 
	-302.7,211.2 -295.3,218.5 -278.2,201.4 -295.3,184.3 -302.7,191.6 -300.2,194.1 -295.3,189.2 -283.2,201.4 -295.3,213.6 
	-300.2,208.7 -302.7,206.3 -307.5,201.4 -302.7,196.5 -305.1,194.1 -310,198.9 -314.9,194.1 -317.3,191.6 -324.7,184.3 
	-341.8,201.4 -324.7,218.5 -317.3,211.2 -319.8,208.7 "/>
<polygon class="st3" points="-310,189.2 -305.1,194.1 -302.7,196.5 -297.8,201.4 -302.7,206.3 -300.2,208.7 -292.9,201.4 
	-300.2,194.1 -302.7,191.6 -310,184.3 -317.3,191.6 -314.9,194.1 "/>
<polygon class="st3" points="-302.7,211.2 -302.7,211.2 -305.1,208.7 -305.1,208.7 -310,213.6 -314.9,208.7 -317.3,206.3 
	-322.2,201.4 -317.3,196.5 -317.3,196.5 -319.8,194.1 -319.8,194.1 -327.1,201.4 -319.8,208.7 -317.3,211.2 -310,218.5 "/>
</svg>
